inDegrees=no
num_controls=7
num_derivatives=13
num_iterations=121
num_multipliers=7
num_parameters=0
num_slacks=7
num_states=26
objective=0.266241
objective_accelerations=0.000000
objective_balance=0.002485
objective_effort=0.077319
objective_height=0.182274
objective_ligament=0.004163
solver_duration=1371.198802
status=Solve_Succeeded
success=true
DataType=double
version=3
OpenSimVersion=4.5
endheader
time	/jointset/ground_pelvis/pelvis_tilt/value	/jointset/ground_pelvis/pelvis_tx/value	/jointset/ground_pelvis/pelvis_ty/value	/jointset/hip_r/hip_flexion_r/value	/jointset/hip_r/hip_adduction_r/value	/jointset/hip_r/hip_rotation_r/value	/jointset/back/lumbar_extension/value	/jointset/patellofemoral_r/patellar_flexion_r/value	/jointset/knee_r/knee_flexion_r/value	/jointset/knee_r/knee_adduction_r/value	/jointset/knee_r/knee_rotation_r/value	/jointset/ankle_r/ankle_angle_r/value	/jointset/subtalar_r/subtalar_angle_r/value	/jointset/ground_pelvis/pelvis_tilt/speed	/jointset/ground_pelvis/pelvis_tx/speed	/jointset/ground_pelvis/pelvis_ty/speed	/jointset/hip_r/hip_flexion_r/speed	/jointset/hip_r/hip_adduction_r/speed	/jointset/hip_r/hip_rotation_r/speed	/jointset/back/lumbar_extension/speed	/jointset/patellofemoral_r/patellar_flexion_r/speed	/jointset/knee_r/knee_flexion_r/speed	/jointset/knee_r/knee_adduction_r/speed	/jointset/knee_r/knee_rotation_r/speed	/jointset/ankle_r/ankle_angle_r/speed	/jointset/subtalar_r/subtalar_angle_r/speed	/forceset/tau_hip_flexion_r	/forceset/tau_hip_adduction_r	/forceset/tau_hip_rotation_r	/forceset/tau_knee_flexion_r	/forceset/tau_ankle_angle_r	/forceset/tau_subtalar_angle_r	/forceset/tau_lumbar_extension	lambda_cid13_p0	lambda_cid14_p0	lambda_cid14_p1	lambda_cid14_p2	lambda_cid14_p3	lambda_cid14_p4	lambda_cid14_p5	/jointset/ground_pelvis/pelvis_tilt/accel	/jointset/ground_pelvis/pelvis_tx/accel	/jointset/ground_pelvis/pelvis_ty/accel	/jointset/hip_r/hip_flexion_r/accel	/jointset/hip_r/hip_adduction_r/accel	/jointset/hip_r/hip_rotation_r/accel	/jointset/back/lumbar_extension/accel	/jointset/patellofemoral_r/patellar_flexion_r/accel	/jointset/knee_r/knee_flexion_r/accel	/jointset/knee_r/knee_adduction_r/accel	/jointset/knee_r/knee_rotation_r/accel	/jointset/ankle_r/ankle_angle_r/accel	/jointset/subtalar_r/subtalar_angle_r/accel	gamma_cid13_p0	gamma_cid14_p0	gamma_cid14_p1	gamma_cid14_p2	gamma_cid14_p3	gamma_cid14_p4	gamma_cid14_p5
1.5	-0.1843264652565299	-0.05744671913992362	0.3522126816906121	2.181560716450902	-0.2191237249700206	0.128868821914083	-0.7509931628615285	2.181257000103432	2.18125700010338	-0.1744798332852562	0.174420881080442	0.3173740196459789	0.1487033309577652	-0.3896502229874549	0.1017744917911846	0.05801844767444128	-0.002471641496406352	-0.03709411174065001	-0.02048373084835212	1.027206853676769	-0.05305711358315028	-0.05305711358314817	0.006873069131041588	-0.006730662080322034	0.3529902606262187	0.09080202431923312	-0.3544633544265537	-0.08004927276195865	-0.01838445110304269	-0.5636758685384757	0.217298130278277	-0.03339638533969724	0.4312868945278489	-0.02211294593883286	9.366175281369928	-18.50069463272206	9.809796146808814	-63.67661940931063	-884.6215696949416	90.08390031285273	-10.70959172513921	1.25891348836201	1.840336125400184	1.14932674458881	-2.07173459095999	-2.89473572602627	18.22541017953681	-4.677774100114738	-4.677774100114377	0.08768756038040779	1.642335221320407	4.817940103190268	-1.129335704294738	2.874644189082317e-07	1.502725039920364e-07	-3.949005949004954e-06	4.307384096309625e-06	8.024919101040741e-07	1.963523845622106e-07	-4.915831427787347e-06
1.51	-0.1887698926979807	-0.05637164243230627	0.3528941267466736	2.181576389292334	-0.219591034932929	0.1285033510445394	-0.73981052307414	2.180461717470141	2.180461717470096	-0.1744161002085585	0.1744163913320491	0.3211408324794765	0.1495648127667921	-0.5005236215365448	0.1126906448343431	0.07913643639163043	0.004430838237963857	-0.05573487440319001	-0.05431496940257302	1.209754054007299	-0.1090893693283298	-0.1090893693283348	0.004904512725320394	0.004070983190277228	0.3997639144775901	0.0822691266106708	-0.3646945603795925	-0.07795255043156861	-0.01908872774145235	-0.5942605923450025	0.2134163784271948	-0.03354239992672012	0.4382991235671757	-0.02238390899288768	5.783198781264031	-19.19590740900044	9.925708729386455	-51.75229119950413	-912.5839227802908	95.86768063533729	-11.49938848564288	0.9257062198601408	2.377542346987561	0.284476075120045	-1.665135249677665	-3.882858266094875	18.33431749075939	-6.52953134175774	-6.529531341758674	-0.4848439239774384	0.5352055479143454	4.515765182920209	-0.598833389368714	3.834916313487311e-07	-6.059957170214371e-08	-1.01479103792706e-06	2.188862279261679e-06	1.166296697068304e-06	4.996341553902594e-07	1.888137958392593e-06
1.52	-0.1943666890380923	-0.05520385619274386	0.3538127541103289	2.181625840428556	-0.2202257301516181	0.1277484597202586	-0.7267894227772564	2.179013396273391	2.179013396273351	-0.1744011960324955	0.1744671433099542	0.3253571192828497	0.150364252281687	-0.6203240027195949	0.1203163981801973	0.1054549091931885	0.004284017462690612	-0.07057116289679648	-0.09836782179578903	1.394898955575761	-0.1836648262750369	-0.1836648262750365	-0.002892710997562979	0.004317683180262931	0.4428850546013471	0.078393565492839	-0.374925766332631	-0.07585582810117865	-0.01979300437986347	-0.6248453161515293	0.2095346265761125	-0.03368841451374321	0.4453113526065027	-0.02273006699630625	2.216621706471082	-19.90944721292648	10.06875903867782	-40.34984840629772	-940.6164416218386	101.4089593548462	-12.4949882519312	0.6008335489011581	2.880432942273969	-0.2605333573398854	-1.310839757173284	-4.939058493825287	18.74495042712321	-8.386414340420265	-8.386414340417392	-1.078045903052026	-0.4686538348022996	4.087437357667389	-0.1978683861486388	3.156381073728222e-07	-1.671466208346893e-07	1.295528523260388e-07	9.411811011778955e-07	1.145644147442146e-06	5.670386546852759e-07	3.518910525358508e-06
1.53	-0.2012087979459261	-0.05397481652862107	0.3550178471942213	2.181650434661695	-0.2209937066370635	0.1265329801146937	-0.7118956729629013	2.176731846639759	2.176731846639722	-0.1744645049409146	0.1744910349604345	0.3299830391810314	0.1511400753436486	-0.7500378134933424	0.1250784927607121	0.1361363309158768	0.000902768844286044	-0.08282199062708537	-0.1436324459394443	1.585324970237718	-0.2752402735440713	-0.2752402735440618	-0.008076270091920369	0.001006212828715037	0.4812439396189069	0.07661391255641815	-0.3832858349920585	-0.07455386016957566	-0.01985617552966663	-0.6496107976093626	0.2055601382048092	-0.03341364106886901	0.450553685911438	-0.02311437375746089	-0.8647678939841238	-20.34505855505901	10.15581742765391	-31.56847523179554	-962.9869488158533	105.8947048298696	-13.50059460782093	0.3520384830539949	3.247947434597773	-0.3367425389621814	-1.151691509948983	-4.155826979735235	19.41252142709852	-9.932374707664009	-9.932374707664533	0.01541774052465049	-0.1805569021209899	3.551865600660991	-0.1916887330232536	7.366130095448155e-08	-1.628483292454995e-07	-6.278412170471867e-07	6.187681019935269e-07	7.165056776887064e-07	3.83823552976448e-07	-3.468385280904214e-07
